<?xml version="1.0" encoding="UTF-8" standalone="no"?>
<!-- Created with Inkscape (http://www.inkscape.org/) -->

<svg
   xmlns:dc="http://purl.org/dc/elements/1.1/"
   xmlns:cc="http://creativecommons.org/ns#"
   xmlns:rdf="http://www.w3.org/1999/02/22-rdf-syntax-ns#"
   xmlns:svg="http://www.w3.org/2000/svg"
   xmlns="http://www.w3.org/2000/svg"
   xmlns:sodipodi="http://sodipodi.sourceforge.net/DTD/sodipodi-0.dtd"
   xmlns:inkscape="http://www.inkscape.org/namespaces/inkscape"
   id="svg2"
   version="1.1"
   inkscape:version="0.48.4 r9939"
   width="142.3375"
   height="121.9875"
   xml:space="preserve"
   sodipodi:docname="logo_y.eps"><metadata
     id="metadata8"><rdf:RDF><cc:Work
         rdf:about=""><dc:format>image/svg+xml</dc:format><dc:type
           rdf:resource="http://purl.org/dc/dcmitype/StillImage" /><dc:title></dc:title></cc:Work></rdf:RDF></metadata><defs
     id="defs6" /><sodipodi:namedview
     pagecolor="#ffffff"
     bordercolor="#666666"
     borderopacity="1"
     objecttolerance="10"
     gridtolerance="10"
     guidetolerance="10"
     inkscape:pageopacity="0"
     inkscape:pageshadow="2"
     inkscape:window-width="640"
     inkscape:window-height="480"
     id="namedview4"
     showgrid="false"
     inkscape:zoom="1.9346244"
     inkscape:cx="71.168747"
     inkscape:cy="60.993752"
     inkscape:window-x="0"
     inkscape:window-y="24"
     inkscape:window-maximized="0"
     inkscape:current-layer="g10" /><g
     id="g10"
     inkscape:groupmode="layer"
     inkscape:label="ink_ext_XXXXXX"
     transform="matrix(1.25,0,0,-1.25,0,121.9875)"><g
       id="g12"
       transform="scale(0.1,0.1)"><path
         d="M 943.109,268.016 C 943.109,120.43 823.48,0.808594 675.902,0.808594 L 27.4414,0 28.125,602.02 c 0,147.597 119.609,267.207 267.207,267.207 l 380.57,0 c 147.578,0 267.207,-119.61 267.207,-267.207 l 0,-334.004"
         style="fill:#fde7b1;fill-opacity:1;fill-rule:nonzero;stroke:none"
         id="path14" /><path
         d="m 817.797,671.965 c -9.082,10.105 -10.176,23.922 -2.481,30.828 l 69.883,62.391 C 840.551,850.383 751.313,908.551 648.461,908.551 l -380.59,0 C 120.293,908.551 0.65625,788.895 0.65625,641.34 L 0,39.3047 648.461,40.0898 c 147.578,0 267.187,119.6372 267.187,267.2232 l 0,334.027 c 0,26.129 -3.828,51.383 -10.82,75.262 l -56.64,-50.618 c -7.657,-6.851 -21.29,-4.218 -30.391,5.981"
         style="fill:#fab20b;fill-opacity:1;fill-rule:nonzero;stroke:none"
         id="path16" /><path
         d="m 929.398,771.699 c -9.043,10.125 -22.656,12.793 -30.312,5.879 l -13.887,-12.394 c 8.067,-15.371 14.668,-31.629 19.629,-48.582 l 27.11,24.238 c 7.714,6.894 6.562,20.703 -2.54,30.859"
         style="fill:#fab20b;fill-opacity:1;fill-rule:nonzero;stroke:none"
         id="path18" /><path
         d="m 815.316,702.793 c -7.695,-6.906 -6.601,-20.723 2.481,-30.828 9.101,-10.199 22.734,-12.832 30.391,-5.981 l 56.64,50.618 c -4.961,16.953 -11.562,33.211 -19.629,48.582 l -69.883,-62.391"
         style="fill:#ffffff;fill-opacity:1;fill-rule:nonzero;stroke:none"
         id="path20" /><path
         d="M 444.453,253.223 265.488,453.953 466.152,632.938 645.16,432.207 444.453,253.223"
         style="fill:#ffffff;fill-opacity:1;fill-rule:nonzero;stroke:none"
         id="path22" /><path
         d="m 787.074,690 -48.828,54.707 c -35.918,40.359 -97.793,43.848 -138.086,7.938 l -24.824,-22.223 -17.695,-15.754 -72.016,-64.18 179.008,-200.742 71.992,64.246 17.676,15.821 24.922,22.152 c 40.293,35.906 43.828,97.723 7.851,138.035"
         style="fill:#ffffff;fill-opacity:1;fill-rule:nonzero;stroke:none"
         id="path24" /><path
         d="m 465.027,512.168 c -4.968,-4.434 -12.742,-4.043 -17.168,1.016 l -16.367,18.25 c -4.539,5.011 -4.043,12.777 1.035,17.226 l 18.254,16.328 c 5.02,4.465 12.703,3.985 17.246,-1.015 l 16.231,-18.243 c 4.512,-5.054 4.062,-12.781 -0.977,-17.261 l -18.254,-16.301"
         style="fill:#4a463d;fill-opacity:1;fill-rule:nonzero;stroke:none"
         id="path26" /><path
         d="m 512.035,459.453 c -5,-4.484 -12.75,-4.004 -17.211,1.008 l -16.25,18.258 c -4.551,4.992 -4.133,12.715 1.016,17.258 l 18.183,16.281 c 5,4.453 12.797,4.031 17.29,-0.988 l 16.23,-18.262 c 4.512,-5.047 4.082,-12.805 -1.035,-17.246 l -18.223,-16.309"
         style="fill:#4a463d;fill-opacity:1;fill-rule:nonzero;stroke:none"
         id="path28" /><path
         d="m 559.047,406.766 c -5.02,-4.461 -12.774,-4.012 -17.266,1.039 l -16.211,18.258 c -4.609,4.933 -4.082,12.738 0.899,17.191 l 18.301,16.25 c 5.097,4.519 12.714,4.098 17.324,-0.949 l 16.211,-18.235 c 4.472,-5.078 4.043,-12.832 -1.016,-17.332 l -18.242,-16.222"
         style="fill:#4a463d;fill-opacity:1;fill-rule:nonzero;stroke:none"
         id="path30" /><path
         d="m 416.367,468.762 c -4.961,-4.465 -12.762,-4.035 -17.168,1.035 l -16.347,18.269 c -4.493,5.008 -3.985,12.735 1.043,17.196 l 18.214,16.261 c 5.059,4.551 12.754,4.063 17.286,-1.007 l 16.269,-18.145 c 4.434,-5.074 4.063,-12.793 -0.957,-17.312 l -18.34,-16.297"
         style="fill:#4a463d;fill-opacity:1;fill-rule:nonzero;stroke:none"
         id="path32" /><path
         d="m 463.43,416.074 c -5.071,-4.511 -12.825,-4.015 -17.258,0.957 l -16.289,18.36 c -4.531,4.871 -4.024,12.695 0.976,17.16 l 18.204,16.328 c 5.058,4.422 12.792,3.992 17.343,-1.027 l 16.25,-18.274 c 4.461,-5 4.032,-12.723 -1.015,-17.207 L 463.43,416.074"
         style="fill:#4a463d;fill-opacity:1;fill-rule:nonzero;stroke:none"
         id="path34" /><path
         d="m 510.473,363.418 c -5.078,-4.492 -12.875,-4.207 -17.348,0.984 l -16.199,18.274 c -4.563,4.961 -4.082,12.722 0.945,17.176 l 18.215,16.308 c 5.066,4.504 12.746,4.035 17.277,-1.043 l 16.328,-18.254 c 4.434,-5.027 3.985,-12.742 -1.074,-17.234 l -18.144,-16.211"
         style="fill:#4a463d;fill-opacity:1;fill-rule:nonzero;stroke:none"
         id="path36" /><path
         d="m 367.727,425.391 c -4.985,-4.473 -12.786,-4.082 -17.239,0.976 l -16.258,18.242 c -4.542,5.059 -4.074,12.762 1.036,17.235 l 18.23,16.332 c 4.981,4.508 12.734,4.031 17.266,-0.957 l 16.23,-18.246 c 4.473,-5.078 4.043,-12.762 -1.054,-17.313 l -18.211,-16.269"
         style="fill:#4a463d;fill-opacity:1;fill-rule:nonzero;stroke:none"
         id="path38" /><path
         d="m 414.727,372.715 c -5.039,-4.59 -12.735,-4.024 -17.227,0.965 l -16.27,18.246 c -4.55,4.988 -4.042,12.801 0.997,17.234 l 18.183,16.309 c 5.059,4.472 12.852,4.023 17.305,-0.989 l 16.262,-18.23 c 4.5,-5.012 4.05,-12.812 -0.997,-17.246 l -18.253,-16.289"
         style="fill:#4a463d;fill-opacity:1;fill-rule:nonzero;stroke:none"
         id="path40" /><path
         d="m 461.785,319.961 c -5.086,-4.465 -12.801,-3.984 -17.234,1.035 l -16.348,18.301 c -4.512,4.988 -4.023,12.723 1.035,17.168 l 18.242,16.277 c 5,4.453 12.715,4.094 17.247,-0.976 l 16.23,-18.192 c 4.512,-5.09 4.102,-12.82 -0.937,-17.285 l -18.235,-16.328"
         style="fill:#4a463d;fill-opacity:1;fill-rule:nonzero;stroke:none"
         id="path42" /><path
         d="m 174.395,143.641 -48.79,54.679 c -35.9566,40.282 -32.48,102.09 7.864,138.047 l 24.793,22.141 17.773,15.847 70.039,62.45 L 425.078,236.191 354.98,173.68 337.266,157.852 312.5,135.637 C 272.129,99.7852 210.383,103.301 174.395,143.641"
         style="fill:#ffffff;fill-opacity:1;fill-rule:nonzero;stroke:none"
         id="path44" /><path
         d="m 1048.34,855.641 c -21.13,30.125 -50.914,51.898 -86.09,62.91 l 17.969,57.355 c 47.951,-14.922 88.341,-44.601 117.281,-85.625 33.42,-47.449 47.19,-105.23 38.74,-162.652 l -59.48,8.766 c 6.21,42.089 -3.83,84.441 -28.42,119.246"
         style="fill:#fde7b1;fill-opacity:1;fill-rule:nonzero;stroke:none"
         id="path46" /><path
         d="m 985.629,814.199 c -14.766,21.153 -35.586,36.309 -60.254,43.992 l 12.559,40.204 c 33.535,-10.508 61.914,-31.258 82.186,-59.957 23.32,-33.297 33.01,-73.68 27.11,-113.84 l -41.72,6.144 c 4.4,29.387 -2.61,59.082 -19.881,83.457"
         style="fill:#fcd16d;fill-opacity:1;fill-rule:nonzero;stroke:none"
         id="path48" /></g></g></svg>